<svg id="Layer_1" data-name="Layer 1" xmlns="http://www.w3.org/2000/svg" viewBox="0 0 292 338"><defs><style>.cls-1{isolation:isolate;}.cls-2{fill:#8e8e8e;}.cls-3{fill:#ddd;}</style></defs><g id="Letter_Pattern" data-name="Letter Pattern"><g id="E" class="cls-1"><g class="cls-1"><path class="cls-2" d="M8.94,4.34V6.42H4.16V9.14H7.82v2H4.16v2.78H8.94V16H1.44V4.34Z"/></g></g><g id="E-2" class="cls-1"><g class="cls-1"><path class="cls-3" d="M8.94,33.34v2.08H4.16v2.72H7.82v2H4.16v2.78H8.94V45H1.44V33.34Z"/></g></g><g id="E-3" class="cls-1"><g class="cls-1"><path class="cls-3" d="M8.94,62.34v2.08H4.16v2.72H7.82v2H4.16v2.78H8.94V74H1.44V62.34Z"/></g></g><g id="E-4" class="cls-1"><g class="cls-1"><path class="cls-3" d="M8.94,91.34v2.08H4.16v2.72H7.82v2H4.16v2.78H8.94V103H1.44V91.34Z"/></g></g><g id="E-5" class="cls-1"><g class="cls-1"><path class="cls-3" d="M8.94,120.34v2.08H4.16v2.72H7.82v2H4.16v2.78H8.94V132H1.44V120.34Z"/></g></g><g id="A" class="cls-1"><g class="cls-1"><path class="cls-2" d="M39.91,16H37.82a1,1,0,0,1-.58-.16.82.82,0,0,1-.32-.42l-.69-2H31.8l-.69,2a.93.93,0,0,1-.88.58H28.12L32.63,4.34H35.4Zm-7.49-4.46h3.19L34.54,8.35c-.07-.2-.15-.44-.25-.71s-.18-.58-.27-.9c-.09.33-.18.63-.27.91s-.17.52-.25.72Z"/></g></g><g id="A-2" class="cls-1"><g class="cls-1"><path class="cls-2" d="M39.91,45H37.82a1,1,0,0,1-.58-.16.82.82,0,0,1-.32-.42l-.69-2H31.8l-.69,2a.93.93,0,0,1-.88.58H28.12l4.51-11.66H35.4Zm-7.49-4.46h3.19l-1.07-3.19c-.07-.2-.15-.44-.25-.71s-.18-.58-.27-.9c-.09.33-.18.63-.27.91s-.17.52-.25.72Z"/></g></g><g id="A-3" class="cls-1"><g class="cls-1"><path class="cls-3" d="M39.91,74H37.82a1,1,0,0,1-.58-.16.82.82,0,0,1-.32-.42l-.69-2H31.8l-.69,2a.93.93,0,0,1-.88.58H28.12l4.51-11.66H35.4Zm-7.49-4.46h3.19l-1.07-3.19c-.07-.2-.15-.44-.25-.71s-.18-.58-.27-.9c-.09.33-.18.63-.27.91s-.17.52-.25.72Z"/></g></g><g id="A-4" class="cls-1"><g class="cls-1"><path class="cls-3" d="M39.91,103H37.82a1,1,0,0,1-.58-.16.82.82,0,0,1-.32-.42l-.69-2H31.8l-.69,2a.93.93,0,0,1-.88.58H28.12l4.51-11.66H35.4Zm-7.49-4.46h3.19l-1.07-3.19c-.07-.2-.15-.44-.25-.71s-.18-.58-.27-.9c-.09.33-.18.63-.27.91s-.17.52-.25.72Z"/></g></g><g id="A-5" class="cls-1"><g class="cls-1"><path class="cls-3" d="M39.91,132H37.82a1,1,0,0,1-.58-.16.82.82,0,0,1-.32-.42l-.69-2H31.8l-.69,2a.93.93,0,0,1-.88.58H28.12l4.51-11.66H35.4Zm-7.49-4.46h3.19l-1.07-3.19c-.07-.2-.15-.44-.25-.71s-.18-.58-.27-.9c-.09.33-.18.63-.27.91s-.17.52-.25.72Z"/></g></g><g id="S" class="cls-1"><g class="cls-1"><path class="cls-2" d="M65.12,6.71a.92.92,0,0,1-.25.29.6.6,0,0,1-.34.1.83.83,0,0,1-.4-.12l-.48-.26A3.86,3.86,0,0,0,63,6.46a2.37,2.37,0,0,0-.78-.12,1.69,1.69,0,0,0-1.14.33,1.12,1.12,0,0,0-.37.87.82.82,0,0,0,.23.59,2,2,0,0,0,.58.4,7.93,7.93,0,0,0,.84.31c.31.09.63.19,1,.31a8.09,8.09,0,0,1,1,.4,3.29,3.29,0,0,1,.83.59,2.89,2.89,0,0,1,.59.88A3.09,3.09,0,0,1,66,12.26a4,4,0,0,1-.28,1.52A3.48,3.48,0,0,1,64.86,15a3.72,3.72,0,0,1-1.31.83,4.9,4.9,0,0,1-1.77.3A6,6,0,0,1,60.67,16a6.53,6.53,0,0,1-1.09-.32,7.12,7.12,0,0,1-1-.48,4.28,4.28,0,0,1-.8-.63l.8-1.26a.53.53,0,0,1,.24-.23.73.73,0,0,1,.35-.09.9.9,0,0,1,.48.15l.55.34a5.21,5.21,0,0,0,.71.33,2.71,2.71,0,0,0,1,.15A1.76,1.76,0,0,0,63,13.66a1.25,1.25,0,0,0,.41-1,1,1,0,0,0-.23-.66,1.87,1.87,0,0,0-.58-.43,5.36,5.36,0,0,0-.83-.29c-.31-.09-.63-.18-1-.29a6.61,6.61,0,0,1-1-.38A2.84,2.84,0,0,1,59,10a2.74,2.74,0,0,1-.59-.93,3.67,3.67,0,0,1-.23-1.37,3.2,3.2,0,0,1,.27-1.28,3.13,3.13,0,0,1,.77-1.11,3.73,3.73,0,0,1,1.26-.78,4.52,4.52,0,0,1,1.7-.29,6,6,0,0,1,1.05.08,5.62,5.62,0,0,1,1,.25,5.1,5.1,0,0,1,.85.39,3.42,3.42,0,0,1,.71.52Z"/></g></g><g id="S-2" class="cls-1"><g class="cls-1"><path class="cls-2" d="M65.12,35.71a.92.92,0,0,1-.25.29.6.6,0,0,1-.34.1.83.83,0,0,1-.4-.12l-.48-.26a3.86,3.86,0,0,0-.61-.26,2.37,2.37,0,0,0-.78-.12,1.69,1.69,0,0,0-1.14.33,1.12,1.12,0,0,0-.37.87.82.82,0,0,0,.23.59,2,2,0,0,0,.58.4,7.93,7.93,0,0,0,.84.31c.31.09.63.19,1,.31a8.09,8.09,0,0,1,1,.4,3.29,3.29,0,0,1,.83.59,2.89,2.89,0,0,1,.59.88A3.09,3.09,0,0,1,66,41.26a4,4,0,0,1-.28,1.52A3.48,3.48,0,0,1,64.86,44a3.72,3.72,0,0,1-1.31.83,4.9,4.9,0,0,1-1.77.3A6,6,0,0,1,60.67,45a6.53,6.53,0,0,1-1.09-.32,7.12,7.12,0,0,1-1-.48,4.28,4.28,0,0,1-.8-.63l.8-1.26a.53.53,0,0,1,.24-.23.73.73,0,0,1,.35-.09.9.9,0,0,1,.48.15l.55.34a5.21,5.21,0,0,0,.71.33,2.71,2.71,0,0,0,1,.15A1.76,1.76,0,0,0,63,42.66a1.25,1.25,0,0,0,.41-1,1,1,0,0,0-.23-.66,1.87,1.87,0,0,0-.58-.43,5.36,5.36,0,0,0-.83-.29c-.31-.09-.63-.18-1-.29a6.61,6.61,0,0,1-1-.38A2.84,2.84,0,0,1,59,39a2.74,2.74,0,0,1-.59-.93,3.67,3.67,0,0,1-.23-1.37,3.2,3.2,0,0,1,.27-1.28,3.13,3.13,0,0,1,.77-1.11,3.73,3.73,0,0,1,1.26-.78,4.52,4.52,0,0,1,1.7-.29,6,6,0,0,1,1.05.08,5.62,5.62,0,0,1,1,.25,5.1,5.1,0,0,1,.85.39,3.42,3.42,0,0,1,.71.52Z"/></g></g><g id="S-3" class="cls-1"><g class="cls-1"><path class="cls-2" d="M65.12,64.71a.92.92,0,0,1-.25.29.6.6,0,0,1-.34.1.83.83,0,0,1-.4-.12l-.48-.26a3.86,3.86,0,0,0-.61-.26,2.37,2.37,0,0,0-.78-.12,1.69,1.69,0,0,0-1.14.33,1.12,1.12,0,0,0-.37.87.82.82,0,0,0,.23.59,2,2,0,0,0,.58.4,7.93,7.93,0,0,0,.84.31c.31.09.63.19,1,.31a8.09,8.09,0,0,1,1,.4,3.29,3.29,0,0,1,.83.59,2.89,2.89,0,0,1,.59.88A3.09,3.09,0,0,1,66,70.26a4,4,0,0,1-.28,1.52A3.48,3.48,0,0,1,64.86,73a3.72,3.72,0,0,1-1.31.83,4.9,4.9,0,0,1-1.77.3A6,6,0,0,1,60.67,74a6.53,6.53,0,0,1-1.09-.32,7.12,7.12,0,0,1-1-.48,4.28,4.28,0,0,1-.8-.63l.8-1.26a.53.53,0,0,1,.24-.23.73.73,0,0,1,.35-.09.9.9,0,0,1,.48.15l.55.34a5.21,5.21,0,0,0,.71.33,2.71,2.71,0,0,0,1,.15A1.76,1.76,0,0,0,63,71.66a1.25,1.25,0,0,0,.41-1,1,1,0,0,0-.23-.66,1.87,1.87,0,0,0-.58-.43,5.36,5.36,0,0,0-.83-.29c-.31-.09-.63-.18-1-.29a6.61,6.61,0,0,1-1-.38A2.84,2.84,0,0,1,59,68a2.74,2.74,0,0,1-.59-.93,3.67,3.67,0,0,1-.23-1.37,3.2,3.2,0,0,1,.27-1.28,3.13,3.13,0,0,1,.77-1.11,3.73,3.73,0,0,1,1.26-.78,4.52,4.52,0,0,1,1.7-.29,6,6,0,0,1,1.05.08,5.62,5.62,0,0,1,1,.25,5.1,5.1,0,0,1,.85.39,3.42,3.42,0,0,1,.71.52Z"/></g></g><g id="S-4" class="cls-1"><g class="cls-1"><path class="cls-3" d="M65.12,93.71a.92.92,0,0,1-.25.29.6.6,0,0,1-.34.1.83.83,0,0,1-.4-.12l-.48-.26a3.86,3.86,0,0,0-.61-.26,2.37,2.37,0,0,0-.78-.12,1.69,1.69,0,0,0-1.14.33,1.12,1.12,0,0,0-.37.87.82.82,0,0,0,.23.59,2,2,0,0,0,.58.4,7.93,7.93,0,0,0,.84.31c.31.09.63.19,1,.31a8.09,8.09,0,0,1,1,.4,3.29,3.29,0,0,1,.83.59,2.89,2.89,0,0,1,.59.88A3.09,3.09,0,0,1,66,99.26a4,4,0,0,1-.28,1.52,3.48,3.48,0,0,1-.81,1.22,3.72,3.72,0,0,1-1.31.83,4.9,4.9,0,0,1-1.77.3,6,6,0,0,1-1.11-.11,6.53,6.53,0,0,1-1.09-.32,7.12,7.12,0,0,1-1-.48,4.28,4.28,0,0,1-.8-.63l.8-1.26a.53.53,0,0,1,.24-.23.73.73,0,0,1,.35-.09.9.9,0,0,1,.48.15l.55.34a5.21,5.21,0,0,0,.71.33,2.71,2.71,0,0,0,1,.15,1.76,1.76,0,0,0,1.14-.32,1.25,1.25,0,0,0,.41-1,1,1,0,0,0-.23-.66,1.87,1.87,0,0,0-.58-.43,5.36,5.36,0,0,0-.83-.29c-.31-.09-.63-.18-1-.29a6.61,6.61,0,0,1-1-.38A2.84,2.84,0,0,1,59,97a2.74,2.74,0,0,1-.59-.93,3.67,3.67,0,0,1-.23-1.37,3.2,3.2,0,0,1,.27-1.28,3.13,3.13,0,0,1,.77-1.11,3.73,3.73,0,0,1,1.26-.78,4.52,4.52,0,0,1,1.7-.29,6,6,0,0,1,1.05.08,5.62,5.62,0,0,1,1,.25,5.1,5.1,0,0,1,.85.39,3.42,3.42,0,0,1,.71.52Z"/></g></g><g id="S-5" class="cls-1"><g class="cls-1"><path class="cls-3" d="M65.12,122.71a.92.92,0,0,1-.25.29.6.6,0,0,1-.34.1.83.83,0,0,1-.4-.12l-.48-.26a3.86,3.86,0,0,0-.61-.26,2.37,2.37,0,0,0-.78-.12,1.69,1.69,0,0,0-1.14.33,1.12,1.12,0,0,0-.37.87.82.82,0,0,0,.23.59,2,2,0,0,0,.58.4,7.93,7.93,0,0,0,.84.31c.31.09.63.19,1,.31a8.09,8.09,0,0,1,1,.4,3.29,3.29,0,0,1,.83.59,2.89,2.89,0,0,1,.59.88,3.09,3.09,0,0,1,.22,1.24,4,4,0,0,1-.28,1.52,3.48,3.48,0,0,1-.81,1.22,3.72,3.72,0,0,1-1.31.83,4.9,4.9,0,0,1-1.77.3,6,6,0,0,1-1.11-.11,6.53,6.53,0,0,1-1.09-.32,7.12,7.12,0,0,1-1-.48,4.28,4.28,0,0,1-.8-.63l.8-1.26a.53.53,0,0,1,.24-.23.73.73,0,0,1,.35-.09.9.9,0,0,1,.48.15l.55.34a5.21,5.21,0,0,0,.71.33,2.71,2.71,0,0,0,1,.15,1.76,1.76,0,0,0,1.14-.32,1.25,1.25,0,0,0,.41-1,1,1,0,0,0-.23-.66,1.87,1.87,0,0,0-.58-.43,5.36,5.36,0,0,0-.83-.29c-.31-.09-.63-.18-1-.29a6.61,6.61,0,0,1-1-.38A2.84,2.84,0,0,1,59,126a2.74,2.74,0,0,1-.59-.93,3.67,3.67,0,0,1-.23-1.37,3.2,3.2,0,0,1,.27-1.28,3.13,3.13,0,0,1,.77-1.11,3.73,3.73,0,0,1,1.26-.78,4.52,4.52,0,0,1,1.7-.29,6,6,0,0,1,1.05.08,5.62,5.62,0,0,1,1,.25,5.1,5.1,0,0,1,.85.39,3.42,3.42,0,0,1,.71.52Z"/></g></g><g id="Y" class="cls-1"><g class="cls-1"><path class="cls-2" d="M91.35,11.57V16h-2.7V11.57L84.42,4.34h2.39a.89.89,0,0,1,.56.17,1.14,1.14,0,0,1,.33.42l1.65,3.39c.14.27.26.52.37.75s.21.46.3.68a6.65,6.65,0,0,1,.28-.69c.12-.23.24-.47.36-.74L92.3,4.93a.8.8,0,0,1,.13-.21,1.14,1.14,0,0,1,.19-.19.84.84,0,0,1,.25-.13.75.75,0,0,1,.31-.06h2.4Z"/></g></g><g id="Y-2" class="cls-1"><g class="cls-1"><path class="cls-2" d="M91.35,40.57V45h-2.7V40.57l-4.23-7.23h2.39a.89.89,0,0,1,.56.17,1.14,1.14,0,0,1,.33.42l1.65,3.39c.14.27.26.52.37.75s.21.46.3.68a6.65,6.65,0,0,1,.28-.69c.12-.23.24-.47.36-.74l1.64-3.39a.8.8,0,0,1,.13-.21,1.14,1.14,0,0,1,.19-.19.84.84,0,0,1,.25-.13.75.75,0,0,1,.31-.06h2.4Z"/></g></g><g id="Y-3" class="cls-1"><g class="cls-1"><path class="cls-2" d="M91.35,69.57V74h-2.7V69.57l-4.23-7.23h2.39a.89.89,0,0,1,.56.17,1.14,1.14,0,0,1,.33.42l1.65,3.39c.14.27.26.52.37.75s.21.46.3.68a6.65,6.65,0,0,1,.28-.69c.12-.23.24-.47.36-.74l1.64-3.39a.8.8,0,0,1,.13-.21,1.14,1.14,0,0,1,.19-.19.84.84,0,0,1,.25-.13.75.75,0,0,1,.31-.06h2.4Z"/></g></g><g id="Y-4" class="cls-1"><g class="cls-1"><path class="cls-2" d="M91.35,98.57V103h-2.7V98.57l-4.23-7.23h2.39a.89.89,0,0,1,.56.17,1.14,1.14,0,0,1,.33.42l1.65,3.39c.14.27.26.52.37.75s.21.46.3.68a6.65,6.65,0,0,1,.28-.69c.12-.23.24-.47.36-.74l1.64-3.39a.8.8,0,0,1,.13-.21,1.14,1.14,0,0,1,.19-.19.84.84,0,0,1,.25-.13.75.75,0,0,1,.31-.06h2.4Z"/></g></g><g id="Y-5" class="cls-1"><g class="cls-1"><path class="cls-3" d="M91.35,127.57V132h-2.7v-4.43l-4.23-7.23h2.39a.89.89,0,0,1,.56.17,1.14,1.14,0,0,1,.33.42l1.65,3.39c.14.27.26.52.37.75s.21.46.3.68a6.65,6.65,0,0,1,.28-.69c.12-.23.24-.47.36-.74l1.64-3.39a.8.8,0,0,1,.13-.21,1.14,1.14,0,0,1,.19-.19.84.84,0,0,1,.25-.13.75.75,0,0,1,.31-.06h2.4Z"/></g></g><g id="H" class="cls-1"><g class="cls-1"><path class="cls-2" d="M125.09,132h-2.72v-4.93h-4.74V132h-2.72V120.34h2.72v4.88h4.74v-4.88h2.72Z"/></g></g><g id="H-2" class="cls-1"><g class="cls-1"><path class="cls-3" d="M125.09,161h-2.72v-4.93h-4.74V161h-2.72V149.34h2.72v4.88h4.74v-4.88h2.72Z"/></g></g><g id="H-3" class="cls-1"><g class="cls-1"><path class="cls-3" d="M125.09,190h-2.72v-4.93h-4.74V190h-2.72V178.34h2.72v4.88h4.74v-4.88h2.72Z"/></g></g><g id="H-4" class="cls-1"><g class="cls-1"><path class="cls-3" d="M125.09,219h-2.72v-4.93h-4.74V219h-2.72V207.34h2.72v4.88h4.74v-4.88h2.72Z"/></g></g><g id="H-5" class="cls-1"><g class="cls-1"><path class="cls-3" d="M125.09,248h-2.72v-4.93h-4.74V248h-2.72V236.34h2.72v4.88h4.74v-4.88h2.72Z"/></g></g><g id="H-6" class="cls-1"><g class="cls-1"><path class="cls-3" d="M125.09,277h-2.72v-4.93h-4.74V277h-2.72V265.34h2.72v4.88h4.74v-4.88h2.72Z"/></g></g><g id="H-7" class="cls-1"><g class="cls-1"><path class="cls-3" d="M125.09,306h-2.72v-4.93h-4.74V306h-2.72V294.34h2.72v4.88h4.74v-4.88h2.72Z"/></g></g><g id="H-8" class="cls-1"><g class="cls-1"><path class="cls-3" d="M125.09,335h-2.72v-4.93h-4.74V335h-2.72V323.34h2.72v4.88h4.74v-4.88h2.72Z"/></g></g><g id="I" class="cls-1"><g class="cls-1"><path class="cls-2" d="M148.36,132h-2.72V120.34h2.72Z"/></g></g><g id="I-2" class="cls-1"><g class="cls-1"><path class="cls-2" d="M148.36,161h-2.72V149.34h2.72Z"/></g></g><g id="I-3" class="cls-1"><g class="cls-1"><path class="cls-3" d="M148.36,190h-2.72V178.34h2.72Z"/></g></g><g id="I-4" class="cls-1"><g class="cls-1"><path class="cls-3" d="M148.36,219h-2.72V207.34h2.72Z"/></g></g><g id="I-5" class="cls-1"><g class="cls-1"><path class="cls-3" d="M148.36,248h-2.72V236.34h2.72Z"/></g></g><g id="I-6" class="cls-1"><g class="cls-1"><path class="cls-3" d="M148.36,277h-2.72V265.34h2.72Z"/></g></g><g id="I-7" class="cls-1"><g class="cls-1"><path class="cls-3" d="M148.36,306h-2.72V294.34h2.72Z"/></g></g><g id="I-8" class="cls-1"><g class="cls-1"><path class="cls-3" d="M148.36,335h-2.72V323.34h2.72Z"/></g></g><g id="S-6" class="cls-1"><g class="cls-1"><path class="cls-2" d="M175.12,122.71a.92.92,0,0,1-.25.29.6.6,0,0,1-.34.1.83.83,0,0,1-.4-.12l-.48-.26a3.86,3.86,0,0,0-.61-.26,2.37,2.37,0,0,0-.78-.12,1.69,1.69,0,0,0-1.14.33,1.12,1.12,0,0,0-.37.87.82.82,0,0,0,.23.59,1.85,1.85,0,0,0,.58.4,7.93,7.93,0,0,0,.84.31c.31.09.63.19.95.31a8.09,8.09,0,0,1,1,.4,3.29,3.29,0,0,1,.83.59,2.89,2.89,0,0,1,.59.88,3.09,3.09,0,0,1,.22,1.24,4,4,0,0,1-.28,1.52,3.48,3.48,0,0,1-.81,1.22,3.81,3.81,0,0,1-1.31.83,4.9,4.9,0,0,1-1.77.3,6,6,0,0,1-1.11-.11,6.53,6.53,0,0,1-1.09-.32,7.12,7.12,0,0,1-1-.48,4,4,0,0,1-.8-.63l.8-1.26a.53.53,0,0,1,.24-.23.7.7,0,0,1,.35-.09.9.9,0,0,1,.48.15l.55.34a5.21,5.21,0,0,0,.71.33,2.71,2.71,0,0,0,1,.15,1.76,1.76,0,0,0,1.14-.32,1.25,1.25,0,0,0,.41-1,1,1,0,0,0-.23-.66,1.87,1.87,0,0,0-.58-.43,5.36,5.36,0,0,0-.83-.29c-.31-.09-.63-.18-1-.29a6.61,6.61,0,0,1-1-.38,2.84,2.84,0,0,1-.82-.6,2.74,2.74,0,0,1-.59-.93,3.67,3.67,0,0,1-.23-1.37,3.2,3.2,0,0,1,.27-1.28,3.13,3.13,0,0,1,.77-1.11,3.73,3.73,0,0,1,1.26-.78,4.52,4.52,0,0,1,1.7-.29,6,6,0,0,1,1.05.08,5.62,5.62,0,0,1,1,.25,5.1,5.1,0,0,1,.85.39,3.42,3.42,0,0,1,.71.52Z"/></g></g><g id="S-7" class="cls-1"><g class="cls-1"><path class="cls-2" d="M175.12,151.71a.92.92,0,0,1-.25.29.6.6,0,0,1-.34.1.83.83,0,0,1-.4-.12l-.48-.26a3.86,3.86,0,0,0-.61-.26,2.37,2.37,0,0,0-.78-.12,1.69,1.69,0,0,0-1.14.33,1.12,1.12,0,0,0-.37.87.82.82,0,0,0,.23.59,1.85,1.85,0,0,0,.58.4,7.93,7.93,0,0,0,.84.31c.31.09.63.19.95.31a8.09,8.09,0,0,1,1,.4,3.29,3.29,0,0,1,.83.59,2.89,2.89,0,0,1,.59.88,3.09,3.09,0,0,1,.22,1.24,4,4,0,0,1-.28,1.52,3.48,3.48,0,0,1-.81,1.22,3.81,3.81,0,0,1-1.31.83,4.9,4.9,0,0,1-1.77.3,6,6,0,0,1-1.11-.11,6.53,6.53,0,0,1-1.09-.32,7.12,7.12,0,0,1-1-.48,4,4,0,0,1-.8-.63l.8-1.26a.53.53,0,0,1,.24-.23.7.7,0,0,1,.35-.09.9.9,0,0,1,.48.15l.55.34a5.21,5.21,0,0,0,.71.33,2.71,2.71,0,0,0,1,.15,1.76,1.76,0,0,0,1.14-.32,1.25,1.25,0,0,0,.41-1,1,1,0,0,0-.23-.66,1.87,1.87,0,0,0-.58-.43,5.36,5.36,0,0,0-.83-.29c-.31-.09-.63-.18-1-.29a6.61,6.61,0,0,1-1-.38,2.84,2.84,0,0,1-.82-.6,2.74,2.74,0,0,1-.59-.93,3.67,3.67,0,0,1-.23-1.37,3.2,3.2,0,0,1,.27-1.28,3.13,3.13,0,0,1,.77-1.11,3.73,3.73,0,0,1,1.26-.78,4.52,4.52,0,0,1,1.7-.29,6,6,0,0,1,1.05.08,5.62,5.62,0,0,1,1,.25,5.1,5.1,0,0,1,.85.39,3.42,3.42,0,0,1,.71.52Z"/></g></g><g id="S-8" class="cls-1"><g class="cls-1"><path class="cls-2" d="M175.12,180.71a.92.92,0,0,1-.25.29.6.6,0,0,1-.34.1.83.83,0,0,1-.4-.12l-.48-.26a3.86,3.86,0,0,0-.61-.26,2.37,2.37,0,0,0-.78-.12,1.69,1.69,0,0,0-1.14.33,1.12,1.12,0,0,0-.37.87.82.82,0,0,0,.23.59,1.85,1.85,0,0,0,.58.4,7.93,7.93,0,0,0,.84.31c.31.09.63.19.95.31a8.09,8.09,0,0,1,1,.4,3.29,3.29,0,0,1,.83.59,2.89,2.89,0,0,1,.59.88,3.09,3.09,0,0,1,.22,1.24,4,4,0,0,1-.28,1.52,3.48,3.48,0,0,1-.81,1.22,3.81,3.81,0,0,1-1.31.83,4.9,4.9,0,0,1-1.77.3,6,6,0,0,1-1.11-.11,6.53,6.53,0,0,1-1.09-.32,7.12,7.12,0,0,1-1-.48,4,4,0,0,1-.8-.63l.8-1.26a.53.53,0,0,1,.24-.23.7.7,0,0,1,.35-.09.9.9,0,0,1,.48.15l.55.34a5.21,5.21,0,0,0,.71.33,2.71,2.71,0,0,0,1,.15,1.76,1.76,0,0,0,1.14-.32,1.25,1.25,0,0,0,.41-1,1,1,0,0,0-.23-.66,1.87,1.87,0,0,0-.58-.43,5.36,5.36,0,0,0-.83-.29c-.31-.09-.63-.18-1-.29a6.61,6.61,0,0,1-1-.38,2.84,2.84,0,0,1-.82-.6,2.74,2.74,0,0,1-.59-.93,3.67,3.67,0,0,1-.23-1.37,3.2,3.2,0,0,1,.27-1.28,3.13,3.13,0,0,1,.77-1.11,3.73,3.73,0,0,1,1.26-.78,4.52,4.52,0,0,1,1.7-.29,6,6,0,0,1,1.05.08,5.62,5.62,0,0,1,1,.25,5.1,5.1,0,0,1,.85.39,3.42,3.42,0,0,1,.71.52Z"/></g></g><g id="S-9" class="cls-1"><g class="cls-1"><path class="cls-3" d="M175.12,209.71a.92.92,0,0,1-.25.29.6.6,0,0,1-.34.1.83.83,0,0,1-.4-.12l-.48-.26a3.86,3.86,0,0,0-.61-.26,2.37,2.37,0,0,0-.78-.12,1.69,1.69,0,0,0-1.14.33,1.12,1.12,0,0,0-.37.87.82.82,0,0,0,.23.59,1.85,1.85,0,0,0,.58.4,7.93,7.93,0,0,0,.84.31c.31.09.63.19.95.31a8.09,8.09,0,0,1,1,.4,3.29,3.29,0,0,1,.83.59,2.89,2.89,0,0,1,.59.88,3.09,3.09,0,0,1,.22,1.24,4,4,0,0,1-.28,1.52,3.48,3.48,0,0,1-.81,1.22,3.81,3.81,0,0,1-1.31.83,4.9,4.9,0,0,1-1.77.3,6,6,0,0,1-1.11-.11,6.53,6.53,0,0,1-1.09-.32,7.12,7.12,0,0,1-1-.48,4,4,0,0,1-.8-.63l.8-1.26a.53.53,0,0,1,.24-.23.7.7,0,0,1,.35-.09.9.9,0,0,1,.48.15l.55.34a5.21,5.21,0,0,0,.71.33,2.71,2.71,0,0,0,1,.15,1.76,1.76,0,0,0,1.14-.32,1.25,1.25,0,0,0,.41-1,1,1,0,0,0-.23-.66,1.87,1.87,0,0,0-.58-.43,5.36,5.36,0,0,0-.83-.29c-.31-.09-.63-.18-1-.29a6.61,6.61,0,0,1-1-.38,2.84,2.84,0,0,1-.82-.6,2.74,2.74,0,0,1-.59-.93,3.67,3.67,0,0,1-.23-1.37,3.2,3.2,0,0,1,.27-1.28,3.13,3.13,0,0,1,.77-1.11,3.73,3.73,0,0,1,1.26-.78,4.52,4.52,0,0,1,1.7-.29,6,6,0,0,1,1.05.08,5.62,5.62,0,0,1,1,.25,5.1,5.1,0,0,1,.85.39,3.42,3.42,0,0,1,.71.52Z"/></g></g><g id="S-10" class="cls-1"><g class="cls-1"><path class="cls-3" d="M175.12,238.71a.92.92,0,0,1-.25.29.6.6,0,0,1-.34.1.83.83,0,0,1-.4-.12l-.48-.26a3.86,3.86,0,0,0-.61-.26,2.37,2.37,0,0,0-.78-.12,1.69,1.69,0,0,0-1.14.33,1.12,1.12,0,0,0-.37.87.82.82,0,0,0,.23.59,1.85,1.85,0,0,0,.58.4,7.93,7.93,0,0,0,.84.31c.31.09.63.19.95.31a8.09,8.09,0,0,1,1,.4,3.29,3.29,0,0,1,.83.59,2.89,2.89,0,0,1,.59.88,3.09,3.09,0,0,1,.22,1.24,4,4,0,0,1-.28,1.52,3.48,3.48,0,0,1-.81,1.22,3.81,3.81,0,0,1-1.31.83,4.9,4.9,0,0,1-1.77.3,6,6,0,0,1-1.11-.11,6.53,6.53,0,0,1-1.09-.32,7.12,7.12,0,0,1-1-.48,4,4,0,0,1-.8-.63l.8-1.26a.53.53,0,0,1,.24-.23.7.7,0,0,1,.35-.09.9.9,0,0,1,.48.15l.55.34a5.21,5.21,0,0,0,.71.33,2.71,2.71,0,0,0,1,.15,1.76,1.76,0,0,0,1.14-.32,1.25,1.25,0,0,0,.41-1,1,1,0,0,0-.23-.66,1.87,1.87,0,0,0-.58-.43,5.36,5.36,0,0,0-.83-.29c-.31-.09-.63-.18-1-.29a6.61,6.61,0,0,1-1-.38,2.84,2.84,0,0,1-.82-.6,2.74,2.74,0,0,1-.59-.93,3.67,3.67,0,0,1-.23-1.37,3.2,3.2,0,0,1,.27-1.28,3.13,3.13,0,0,1,.77-1.11,3.73,3.73,0,0,1,1.26-.78,4.52,4.52,0,0,1,1.7-.29,6,6,0,0,1,1.05.08,5.62,5.62,0,0,1,1,.25,5.1,5.1,0,0,1,.85.39,3.42,3.42,0,0,1,.71.52Z"/></g></g><g id="S-11" class="cls-1"><g class="cls-1"><path class="cls-3" d="M175.12,267.71a.92.92,0,0,1-.25.29.6.6,0,0,1-.34.1.83.83,0,0,1-.4-.12l-.48-.26a3.86,3.86,0,0,0-.61-.26,2.37,2.37,0,0,0-.78-.12,1.69,1.69,0,0,0-1.14.33,1.12,1.12,0,0,0-.37.87.82.82,0,0,0,.23.59,1.85,1.85,0,0,0,.58.4,7.93,7.93,0,0,0,.84.31c.31.09.63.19.95.31a8.09,8.09,0,0,1,1,.4,3.29,3.29,0,0,1,.83.59,2.89,2.89,0,0,1,.59.88,3.09,3.09,0,0,1,.22,1.24,4,4,0,0,1-.28,1.52,3.48,3.48,0,0,1-.81,1.22,3.81,3.81,0,0,1-1.31.83,4.9,4.9,0,0,1-1.77.3,6,6,0,0,1-1.11-.11,6.53,6.53,0,0,1-1.09-.32,7.12,7.12,0,0,1-1-.48,4,4,0,0,1-.8-.63l.8-1.26a.53.53,0,0,1,.24-.23.7.7,0,0,1,.35-.09.9.9,0,0,1,.48.15l.55.34a5.21,5.21,0,0,0,.71.33,2.71,2.71,0,0,0,1,.15,1.76,1.76,0,0,0,1.14-.32,1.25,1.25,0,0,0,.41-1,1,1,0,0,0-.23-.66,1.87,1.87,0,0,0-.58-.43,5.36,5.36,0,0,0-.83-.29c-.31-.09-.63-.18-1-.29a6.61,6.61,0,0,1-1-.38,2.84,2.84,0,0,1-.82-.6,2.74,2.74,0,0,1-.59-.93,3.67,3.67,0,0,1-.23-1.37,3.2,3.2,0,0,1,.27-1.28,3.13,3.13,0,0,1,.77-1.11,3.73,3.73,0,0,1,1.26-.78,4.52,4.52,0,0,1,1.7-.29,6,6,0,0,1,1.05.08,5.62,5.62,0,0,1,1,.25,5.1,5.1,0,0,1,.85.39,3.42,3.42,0,0,1,.71.52Z"/></g></g><g id="S-12" class="cls-1"><g class="cls-1"><path class="cls-3" d="M175.12,296.71a.92.92,0,0,1-.25.29.6.6,0,0,1-.34.1.83.83,0,0,1-.4-.12l-.48-.26a3.86,3.86,0,0,0-.61-.26,2.37,2.37,0,0,0-.78-.12,1.69,1.69,0,0,0-1.14.33,1.12,1.12,0,0,0-.37.87.82.82,0,0,0,.23.59,1.85,1.85,0,0,0,.58.4,7.93,7.93,0,0,0,.84.31c.31.09.63.19.95.31a8.09,8.09,0,0,1,1,.4,3.29,3.29,0,0,1,.83.59,2.89,2.89,0,0,1,.59.88,3.09,3.09,0,0,1,.22,1.24,4,4,0,0,1-.28,1.52,3.48,3.48,0,0,1-.81,1.22,3.81,3.81,0,0,1-1.31.83,4.9,4.9,0,0,1-1.77.3,6,6,0,0,1-1.11-.11,6.53,6.53,0,0,1-1.09-.32,7.12,7.12,0,0,1-1-.48,4,4,0,0,1-.8-.63l.8-1.26a.53.53,0,0,1,.24-.23.7.7,0,0,1,.35-.09.9.9,0,0,1,.48.15l.55.34a5.21,5.21,0,0,0,.71.33,2.71,2.71,0,0,0,1,.15,1.76,1.76,0,0,0,1.14-.32,1.25,1.25,0,0,0,.41-1,1,1,0,0,0-.23-.66,1.87,1.87,0,0,0-.58-.43,5.36,5.36,0,0,0-.83-.29c-.31-.09-.63-.18-1-.29a6.61,6.61,0,0,1-1-.38,2.84,2.84,0,0,1-.82-.6,2.74,2.74,0,0,1-.59-.93,3.67,3.67,0,0,1-.23-1.37,3.2,3.2,0,0,1,.27-1.28,3.13,3.13,0,0,1,.77-1.11,3.73,3.73,0,0,1,1.26-.78,4.52,4.52,0,0,1,1.7-.29,6,6,0,0,1,1.05.08,5.62,5.62,0,0,1,1,.25,5.1,5.1,0,0,1,.85.39,3.42,3.42,0,0,1,.71.52Z"/></g></g><g id="S-13" class="cls-1"><g class="cls-1"><path class="cls-3" d="M175.12,325.71a.92.92,0,0,1-.25.29.6.6,0,0,1-.34.1.83.83,0,0,1-.4-.12l-.48-.26a3.86,3.86,0,0,0-.61-.26,2.37,2.37,0,0,0-.78-.12,1.69,1.69,0,0,0-1.14.33,1.12,1.12,0,0,0-.37.87.82.82,0,0,0,.23.59,1.85,1.85,0,0,0,.58.4,7.93,7.93,0,0,0,.84.31c.31.09.63.19.95.31a8.09,8.09,0,0,1,1,.4,3.29,3.29,0,0,1,.83.59,2.89,2.89,0,0,1,.59.88,3.09,3.09,0,0,1,.22,1.24,4,4,0,0,1-.28,1.52,3.48,3.48,0,0,1-.81,1.22,3.81,3.81,0,0,1-1.31.83,4.9,4.9,0,0,1-1.77.3,6,6,0,0,1-1.11-.11,6.53,6.53,0,0,1-1.09-.32,7.12,7.12,0,0,1-1-.48,4,4,0,0,1-.8-.63l.8-1.26a.53.53,0,0,1,.24-.23.7.7,0,0,1,.35-.09.9.9,0,0,1,.48.15l.55.34a5.21,5.21,0,0,0,.71.33,2.71,2.71,0,0,0,1,.15,1.76,1.76,0,0,0,1.14-.32,1.25,1.25,0,0,0,.41-1,1,1,0,0,0-.23-.66,1.87,1.87,0,0,0-.58-.43,5.36,5.36,0,0,0-.83-.29c-.31-.09-.63-.18-1-.29a6.61,6.61,0,0,1-1-.38,2.84,2.84,0,0,1-.82-.6,2.74,2.74,0,0,1-.59-.93,3.67,3.67,0,0,1-.23-1.37,3.2,3.2,0,0,1,.27-1.28,3.13,3.13,0,0,1,.77-1.11,3.73,3.73,0,0,1,1.26-.78,4.52,4.52,0,0,1,1.7-.29,6,6,0,0,1,1.05.08,5.62,5.62,0,0,1,1,.25,5.1,5.1,0,0,1,.85.39,3.42,3.42,0,0,1,.71.52Z"/></g></g><g id="T" class="cls-1"><g class="cls-1"><path class="cls-2" d="M203.63,120.34v2.15h-3.28V132h-2.7v-9.51h-3.28v-2.15Z"/></g></g><g id="T-2" class="cls-1"><g class="cls-1"><path class="cls-2" d="M203.63,149.34v2.15h-3.28V161h-2.7v-9.51h-3.28v-2.15Z"/></g></g><g id="T-3" class="cls-1"><g class="cls-1"><path class="cls-2" d="M203.63,178.34v2.15h-3.28V190h-2.7v-9.51h-3.28v-2.15Z"/></g></g><g id="T-4" class="cls-1"><g class="cls-1"><path class="cls-2" d="M203.63,207.34v2.15h-3.28V219h-2.7v-9.51h-3.28v-2.15Z"/></g></g><g id="T-5" class="cls-1"><g class="cls-1"><path class="cls-3" d="M203.63,236.34v2.15h-3.28V248h-2.7v-9.51h-3.28v-2.15Z"/></g></g><g id="T-6" class="cls-1"><g class="cls-1"><path class="cls-3" d="M203.63,265.34v2.15h-3.28V277h-2.7v-9.51h-3.28v-2.15Z"/></g></g><g id="T-7" class="cls-1"><g class="cls-1"><path class="cls-3" d="M203.63,294.34v2.15h-3.28V306h-2.7v-9.51h-3.28v-2.15Z"/></g></g><g id="T-8" class="cls-1"><g class="cls-1"><path class="cls-3" d="M203.63,323.34v2.15h-3.28V335h-2.7v-9.51h-3.28v-2.15Z"/></g></g><g id="O" class="cls-1"><g class="cls-1"><path class="cls-2" d="M234.06,126.17a6.29,6.29,0,0,1-.43,2.35,5.57,5.57,0,0,1-3.14,3.15,6.89,6.89,0,0,1-5,0,5.55,5.55,0,0,1-3.15-3.15,6.5,6.5,0,0,1,0-4.7,5.52,5.52,0,0,1,1.23-1.89,5.67,5.67,0,0,1,1.92-1.26,6.56,6.56,0,0,1,2.48-.45,6.36,6.36,0,0,1,2.47.46,5.49,5.49,0,0,1,1.91,1.26,5.58,5.58,0,0,1,1.23,1.88A6.29,6.29,0,0,1,234.06,126.17Zm-2.76,0a5,5,0,0,0-.23-1.56,3.3,3.3,0,0,0-.64-1.17,3,3,0,0,0-1-.74,4,4,0,0,0-2.78,0,2.86,2.86,0,0,0-1,.74,3.32,3.32,0,0,0-.65,1.17,5.64,5.64,0,0,0,0,3.12,3.32,3.32,0,0,0,.65,1.17,2.75,2.75,0,0,0,1,.74,4,4,0,0,0,2.78,0,2.83,2.83,0,0,0,1-.74,3.3,3.3,0,0,0,.64-1.17A5,5,0,0,0,231.3,126.17Z"/></g></g><g id="O-2" class="cls-1"><g class="cls-1"><path class="cls-2" d="M234.06,155.17a6.29,6.29,0,0,1-.43,2.35,5.57,5.57,0,0,1-3.14,3.15,6.89,6.89,0,0,1-5,0,5.55,5.55,0,0,1-3.15-3.15,6.5,6.5,0,0,1,0-4.7,5.52,5.52,0,0,1,1.23-1.89,5.67,5.67,0,0,1,1.92-1.26,6.56,6.56,0,0,1,2.48-.45,6.36,6.36,0,0,1,2.47.46,5.49,5.49,0,0,1,1.91,1.26,5.58,5.58,0,0,1,1.23,1.88A6.29,6.29,0,0,1,234.06,155.17Zm-2.76,0a5,5,0,0,0-.23-1.56,3.3,3.3,0,0,0-.64-1.17,3,3,0,0,0-1-.74,4,4,0,0,0-2.78,0,2.86,2.86,0,0,0-1,.74,3.32,3.32,0,0,0-.65,1.17,5.64,5.64,0,0,0,0,3.12,3.32,3.32,0,0,0,.65,1.17,2.75,2.75,0,0,0,1,.74,4,4,0,0,0,2.78,0,2.83,2.83,0,0,0,1-.74,3.3,3.3,0,0,0,.64-1.17A5,5,0,0,0,231.3,155.17Z"/></g></g><g id="O-3" class="cls-1"><g class="cls-1"><path class="cls-2" d="M234.06,184.17a6.29,6.29,0,0,1-.43,2.35,5.57,5.57,0,0,1-3.14,3.15,6.89,6.89,0,0,1-5,0,5.55,5.55,0,0,1-3.15-3.15,6.5,6.5,0,0,1,0-4.7,5.52,5.52,0,0,1,1.23-1.89,5.67,5.67,0,0,1,1.92-1.26,6.56,6.56,0,0,1,2.48-.45,6.36,6.36,0,0,1,2.47.46,5.49,5.49,0,0,1,1.91,1.26,5.58,5.58,0,0,1,1.23,1.88A6.29,6.29,0,0,1,234.06,184.17Zm-2.76,0a5,5,0,0,0-.23-1.56,3.3,3.3,0,0,0-.64-1.17,3,3,0,0,0-1-.74,4,4,0,0,0-2.78,0,2.86,2.86,0,0,0-1,.74,3.32,3.32,0,0,0-.65,1.17,5.64,5.64,0,0,0,0,3.12,3.32,3.32,0,0,0,.65,1.17,2.75,2.75,0,0,0,1,.74,4,4,0,0,0,2.78,0,2.83,2.83,0,0,0,1-.74,3.3,3.3,0,0,0,.64-1.17A5,5,0,0,0,231.3,184.17Z"/></g></g><g id="O-4" class="cls-1"><g class="cls-1"><path class="cls-2" d="M234.06,213.17a6.29,6.29,0,0,1-.43,2.35,5.57,5.57,0,0,1-3.14,3.15,6.89,6.89,0,0,1-5,0,5.55,5.55,0,0,1-3.15-3.15,6.5,6.5,0,0,1,0-4.7,5.52,5.52,0,0,1,1.23-1.89,5.67,5.67,0,0,1,1.92-1.26,6.56,6.56,0,0,1,2.48-.45,6.36,6.36,0,0,1,2.47.46,5.49,5.49,0,0,1,1.91,1.26,5.58,5.58,0,0,1,1.23,1.88A6.29,6.29,0,0,1,234.06,213.17Zm-2.76,0a5,5,0,0,0-.23-1.56,3.3,3.3,0,0,0-.64-1.17,3,3,0,0,0-1-.74,4,4,0,0,0-2.78,0,2.86,2.86,0,0,0-1,.74,3.32,3.32,0,0,0-.65,1.17,5.64,5.64,0,0,0,0,3.12,3.32,3.32,0,0,0,.65,1.17,2.75,2.75,0,0,0,1,.74,4,4,0,0,0,2.78,0,2.83,2.83,0,0,0,1-.74,3.3,3.3,0,0,0,.64-1.17A5,5,0,0,0,231.3,213.17Z"/></g></g><g id="O-5" class="cls-1"><g class="cls-1"><path class="cls-2" d="M234.06,242.17a6.29,6.29,0,0,1-.43,2.35,5.57,5.57,0,0,1-3.14,3.15,6.89,6.89,0,0,1-5,0,5.55,5.55,0,0,1-3.15-3.15,6.5,6.5,0,0,1,0-4.7,5.52,5.52,0,0,1,1.23-1.89,5.67,5.67,0,0,1,1.92-1.26,6.56,6.56,0,0,1,2.48-.45,6.36,6.36,0,0,1,2.47.46,5.49,5.49,0,0,1,1.91,1.26,5.58,5.58,0,0,1,1.23,1.88A6.29,6.29,0,0,1,234.06,242.17Zm-2.76,0a5,5,0,0,0-.23-1.56,3.3,3.3,0,0,0-.64-1.17,3,3,0,0,0-1-.74,4,4,0,0,0-2.78,0,2.86,2.86,0,0,0-1,.74,3.32,3.32,0,0,0-.65,1.17,5.64,5.64,0,0,0,0,3.12,3.32,3.32,0,0,0,.65,1.17,2.75,2.75,0,0,0,1,.74,4,4,0,0,0,2.78,0,2.83,2.83,0,0,0,1-.74,3.3,3.3,0,0,0,.64-1.17A5,5,0,0,0,231.3,242.17Z"/></g></g><g id="O-6" class="cls-1"><g class="cls-1"><path class="cls-3" d="M234.06,271.17a6.29,6.29,0,0,1-.43,2.35,5.57,5.57,0,0,1-3.14,3.15,6.89,6.89,0,0,1-5,0,5.55,5.55,0,0,1-3.15-3.15,6.5,6.5,0,0,1,0-4.7,5.52,5.52,0,0,1,1.23-1.89,5.67,5.67,0,0,1,1.92-1.26,6.56,6.56,0,0,1,2.48-.45,6.36,6.36,0,0,1,2.47.46,5.49,5.49,0,0,1,1.91,1.26,5.58,5.58,0,0,1,1.23,1.88A6.29,6.29,0,0,1,234.06,271.17Zm-2.76,0a5,5,0,0,0-.23-1.56,3.3,3.3,0,0,0-.64-1.17,3,3,0,0,0-1-.74,4,4,0,0,0-2.78,0,2.86,2.86,0,0,0-1,.74,3.32,3.32,0,0,0-.65,1.17,5.64,5.64,0,0,0,0,3.12,3.32,3.32,0,0,0,.65,1.17,2.75,2.75,0,0,0,1,.74,4,4,0,0,0,2.78,0,2.83,2.83,0,0,0,1-.74,3.3,3.3,0,0,0,.64-1.17A5,5,0,0,0,231.3,271.17Z"/></g></g><g id="O-7" class="cls-1"><g class="cls-1"><path class="cls-3" d="M234.06,300.17a6.29,6.29,0,0,1-.43,2.35,5.57,5.57,0,0,1-3.14,3.15,6.89,6.89,0,0,1-5,0,5.55,5.55,0,0,1-3.15-3.15,6.5,6.5,0,0,1,0-4.7,5.52,5.52,0,0,1,1.23-1.89,5.67,5.67,0,0,1,1.92-1.26,6.56,6.56,0,0,1,2.48-.45,6.36,6.36,0,0,1,2.47.46,5.49,5.49,0,0,1,1.91,1.26,5.58,5.58,0,0,1,1.23,1.88A6.29,6.29,0,0,1,234.06,300.17Zm-2.76,0a5,5,0,0,0-.23-1.56,3.3,3.3,0,0,0-.64-1.17,3,3,0,0,0-1-.74,4,4,0,0,0-2.78,0,2.86,2.86,0,0,0-1,.74,3.32,3.32,0,0,0-.65,1.17,5.64,5.64,0,0,0,0,3.12,3.32,3.32,0,0,0,.65,1.17,2.75,2.75,0,0,0,1,.74,4,4,0,0,0,2.78,0,2.83,2.83,0,0,0,1-.74,3.3,3.3,0,0,0,.64-1.17A5,5,0,0,0,231.3,300.17Z"/></g></g><g id="O-8" class="cls-1"><g class="cls-1"><path class="cls-3" d="M234.06,329.17a6.29,6.29,0,0,1-.43,2.35,5.57,5.57,0,0,1-3.14,3.15,6.89,6.89,0,0,1-5,0,5.55,5.55,0,0,1-3.15-3.15,6.5,6.5,0,0,1,0-4.7,5.52,5.52,0,0,1,1.23-1.89,5.67,5.67,0,0,1,1.92-1.26,6.56,6.56,0,0,1,2.48-.45,6.36,6.36,0,0,1,2.47.46,5.49,5.49,0,0,1,1.91,1.26,5.58,5.58,0,0,1,1.23,1.88A6.29,6.29,0,0,1,234.06,329.17Zm-2.76,0a5,5,0,0,0-.23-1.56,3.3,3.3,0,0,0-.64-1.17,3,3,0,0,0-1-.74,4,4,0,0,0-2.78,0,2.86,2.86,0,0,0-1,.74,3.32,3.32,0,0,0-.65,1.17,5.64,5.64,0,0,0,0,3.12,3.32,3.32,0,0,0,.65,1.17,2.75,2.75,0,0,0,1,.74,4,4,0,0,0,2.78,0,2.83,2.83,0,0,0,1-.74,3.3,3.3,0,0,0,.64-1.17A5,5,0,0,0,231.3,329.17Z"/></g></g><g id="R" class="cls-1"><g class="cls-1"><path class="cls-2" d="M255.34,127.69V132h-2.7V120.34h3.79a8,8,0,0,1,2.16.26,4.11,4.11,0,0,1,1.45.73,2.69,2.69,0,0,1,.82,1.09,3.83,3.83,0,0,1,.11,2.45,3.08,3.08,0,0,1-.45.93,3.59,3.59,0,0,1-.74.77,4,4,0,0,1-1,.55,2.1,2.1,0,0,1,.5.34,2,2,0,0,1,.42.48l2.48,4.06h-2.45a1,1,0,0,1-1-.51l-1.93-3.39a1,1,0,0,0-.3-.32,1.1,1.1,0,0,0-.49-.09Zm0-1.87h1.09a2.62,2.62,0,0,0,.94-.14,1.76,1.76,0,0,0,.64-.38,1.66,1.66,0,0,0,.36-.58,2.36,2.36,0,0,0,.11-.72,1.52,1.52,0,0,0-.5-1.2,2.31,2.31,0,0,0-1.55-.43h-1.09Z"/></g></g><g id="R-2" class="cls-1"><g class="cls-1"><path class="cls-2" d="M255.34,156.69V161h-2.7V149.34h3.79a8,8,0,0,1,2.16.26,4.11,4.11,0,0,1,1.45.73,2.69,2.69,0,0,1,.82,1.09,3.83,3.83,0,0,1,.11,2.45,3.08,3.08,0,0,1-.45.93,3.59,3.59,0,0,1-.74.77,4,4,0,0,1-1,.55,2.1,2.1,0,0,1,.5.34,2,2,0,0,1,.42.48l2.48,4.06h-2.45a1,1,0,0,1-1-.51l-1.93-3.39a1,1,0,0,0-.3-.32,1.1,1.1,0,0,0-.49-.09Zm0-1.87h1.09a2.62,2.62,0,0,0,.94-.14,1.76,1.76,0,0,0,.64-.38,1.66,1.66,0,0,0,.36-.58,2.36,2.36,0,0,0,.11-.72,1.52,1.52,0,0,0-.5-1.2,2.31,2.31,0,0,0-1.55-.43h-1.09Z"/></g></g><g id="R-3" class="cls-1"><g class="cls-1"><path class="cls-2" d="M255.34,185.69V190h-2.7V178.34h3.79a8,8,0,0,1,2.16.26,4.11,4.11,0,0,1,1.45.73,2.69,2.69,0,0,1,.82,1.09,3.83,3.83,0,0,1,.11,2.45,3.08,3.08,0,0,1-.45.93,3.59,3.59,0,0,1-.74.77,4,4,0,0,1-1,.55,2.1,2.1,0,0,1,.5.34,2,2,0,0,1,.42.48l2.48,4.06h-2.45a1,1,0,0,1-1-.51l-1.93-3.39a1,1,0,0,0-.3-.32,1.1,1.1,0,0,0-.49-.09Zm0-1.87h1.09a2.62,2.62,0,0,0,.94-.14,1.76,1.76,0,0,0,.64-.38,1.66,1.66,0,0,0,.36-.58,2.36,2.36,0,0,0,.11-.72,1.52,1.52,0,0,0-.5-1.2,2.31,2.31,0,0,0-1.55-.43h-1.09Z"/></g></g><g id="R-4" class="cls-1"><g class="cls-1"><path class="cls-2" d="M255.34,214.69V219h-2.7V207.34h3.79a8,8,0,0,1,2.16.26,4.11,4.11,0,0,1,1.45.73,2.69,2.69,0,0,1,.82,1.09,3.83,3.83,0,0,1,.11,2.45,3.08,3.08,0,0,1-.45.93,3.59,3.59,0,0,1-.74.77,4,4,0,0,1-1,.55,2.1,2.1,0,0,1,.5.34,2,2,0,0,1,.42.48l2.48,4.06h-2.45a1,1,0,0,1-1-.51l-1.93-3.39a1,1,0,0,0-.3-.32,1.1,1.1,0,0,0-.49-.09Zm0-1.87h1.09a2.62,2.62,0,0,0,.94-.14,1.76,1.76,0,0,0,.64-.38,1.66,1.66,0,0,0,.36-.58,2.36,2.36,0,0,0,.11-.72,1.52,1.52,0,0,0-.5-1.2,2.31,2.31,0,0,0-1.55-.43h-1.09Z"/></g></g><g id="R-5" class="cls-1"><g class="cls-1"><path class="cls-2" d="M255.34,243.69V248h-2.7V236.34h3.79a8,8,0,0,1,2.16.26,4.11,4.11,0,0,1,1.45.73,2.69,2.69,0,0,1,.82,1.09,3.83,3.83,0,0,1,.11,2.45,3.08,3.08,0,0,1-.45.93,3.59,3.59,0,0,1-.74.77,4,4,0,0,1-1,.55,2.1,2.1,0,0,1,.5.34,2,2,0,0,1,.42.48l2.48,4.06h-2.45a1,1,0,0,1-1-.51l-1.93-3.39a1,1,0,0,0-.3-.32,1.1,1.1,0,0,0-.49-.09Zm0-1.87h1.09a2.62,2.62,0,0,0,.94-.14,1.76,1.76,0,0,0,.64-.38,1.66,1.66,0,0,0,.36-.58,2.36,2.36,0,0,0,.11-.72,1.52,1.52,0,0,0-.5-1.2,2.31,2.31,0,0,0-1.55-.43h-1.09Z"/></g></g><g id="R-6" class="cls-1"><g class="cls-1"><path class="cls-2" d="M255.34,272.69V277h-2.7V265.34h3.79a8,8,0,0,1,2.16.26,4.11,4.11,0,0,1,1.45.73,2.69,2.69,0,0,1,.82,1.09,3.83,3.83,0,0,1,.11,2.45,3.08,3.08,0,0,1-.45.93,3.59,3.59,0,0,1-.74.77,4,4,0,0,1-1,.55,2.1,2.1,0,0,1,.5.34,2,2,0,0,1,.42.48l2.48,4.06h-2.45a1,1,0,0,1-1-.51l-1.93-3.39a1,1,0,0,0-.3-.32,1.1,1.1,0,0,0-.49-.09Zm0-1.87h1.09a2.62,2.62,0,0,0,.94-.14,1.76,1.76,0,0,0,.64-.38,1.66,1.66,0,0,0,.36-.58,2.36,2.36,0,0,0,.11-.72,1.52,1.52,0,0,0-.5-1.2,2.31,2.31,0,0,0-1.55-.43h-1.09Z"/></g></g><g id="R-7" class="cls-1"><g class="cls-1"><path class="cls-3" d="M255.34,301.69V306h-2.7V294.34h3.79a8,8,0,0,1,2.16.26,4.11,4.11,0,0,1,1.45.73,2.69,2.69,0,0,1,.82,1.09,3.83,3.83,0,0,1,.11,2.45,3.08,3.08,0,0,1-.45.93,3.59,3.59,0,0,1-.74.77,4,4,0,0,1-1,.55,2.1,2.1,0,0,1,.5.34,2,2,0,0,1,.42.48l2.48,4.06h-2.45a1,1,0,0,1-1-.51l-1.93-3.39a1,1,0,0,0-.3-.32,1.1,1.1,0,0,0-.49-.09Zm0-1.87h1.09a2.62,2.62,0,0,0,.94-.14,1.76,1.76,0,0,0,.64-.38,1.66,1.66,0,0,0,.36-.58,2.36,2.36,0,0,0,.11-.72,1.52,1.52,0,0,0-.5-1.2,2.31,2.31,0,0,0-1.55-.43h-1.09Z"/></g></g><g id="R-8" class="cls-1"><g class="cls-1"><path class="cls-3" d="M255.34,330.69V335h-2.7V323.34h3.79a8,8,0,0,1,2.16.26,4.11,4.11,0,0,1,1.45.73,2.69,2.69,0,0,1,.82,1.09,3.83,3.83,0,0,1,.11,2.45,3.08,3.08,0,0,1-.45.93,3.59,3.59,0,0,1-.74.77,4,4,0,0,1-1,.55,2.1,2.1,0,0,1,.5.34,2,2,0,0,1,.42.48l2.48,4.06h-2.45a1,1,0,0,1-1-.51l-1.93-3.39a1,1,0,0,0-.3-.32,1.1,1.1,0,0,0-.49-.09Zm0-1.87h1.09a2.62,2.62,0,0,0,.94-.14,1.76,1.76,0,0,0,.64-.38,1.66,1.66,0,0,0,.36-.58,2.36,2.36,0,0,0,.11-.72,1.52,1.52,0,0,0-.5-1.2,2.31,2.31,0,0,0-1.55-.43h-1.09Z"/></g></g><g id="Y-6" class="cls-1"><g class="cls-1"><path class="cls-2" d="M287.35,127.57V132h-2.7v-4.43l-4.23-7.23h2.39a.89.89,0,0,1,.56.17,1.14,1.14,0,0,1,.33.42l1.65,3.39c.14.27.26.52.37.75s.21.46.3.68a6.65,6.65,0,0,1,.28-.69c.12-.23.24-.47.36-.74l1.64-3.39a.8.8,0,0,1,.13-.21,1.14,1.14,0,0,1,.19-.19.84.84,0,0,1,.25-.13.75.75,0,0,1,.31-.06h2.4Z"/></g></g><g id="Y-7" class="cls-1"><g class="cls-1"><path class="cls-2" d="M287.35,156.57V161h-2.7v-4.43l-4.23-7.23h2.39a.89.89,0,0,1,.56.17,1.14,1.14,0,0,1,.33.42l1.65,3.39c.14.27.26.52.37.75s.21.46.3.68a6.65,6.65,0,0,1,.28-.69c.12-.23.24-.47.36-.74l1.64-3.39a.8.8,0,0,1,.13-.21,1.14,1.14,0,0,1,.19-.19.84.84,0,0,1,.25-.13.75.75,0,0,1,.31-.06h2.4Z"/></g></g><g id="Y-8" class="cls-1"><g class="cls-1"><path class="cls-2" d="M287.35,185.57V190h-2.7v-4.43l-4.23-7.23h2.39a.89.89,0,0,1,.56.17,1.14,1.14,0,0,1,.33.42l1.65,3.39c.14.27.26.52.37.75s.21.46.3.68a6.65,6.65,0,0,1,.28-.69c.12-.23.24-.47.36-.74l1.64-3.39a.8.8,0,0,1,.13-.21,1.14,1.14,0,0,1,.19-.19.84.84,0,0,1,.25-.13.75.75,0,0,1,.31-.06h2.4Z"/></g></g><g id="Y-9" class="cls-1"><g class="cls-1"><path class="cls-2" d="M287.35,214.57V219h-2.7v-4.43l-4.23-7.23h2.39a.89.89,0,0,1,.56.17,1.14,1.14,0,0,1,.33.42l1.65,3.39c.14.27.26.52.37.75s.21.46.3.68a6.65,6.65,0,0,1,.28-.69c.12-.23.24-.47.36-.74l1.64-3.39a.8.8,0,0,1,.13-.21,1.14,1.14,0,0,1,.19-.19.84.84,0,0,1,.25-.13.75.75,0,0,1,.31-.06h2.4Z"/></g></g><g id="Y-10" class="cls-1"><g class="cls-1"><path class="cls-2" d="M287.35,243.57V248h-2.7v-4.43l-4.23-7.23h2.39a.89.89,0,0,1,.56.17,1.14,1.14,0,0,1,.33.42l1.65,3.39c.14.27.26.52.37.75s.21.46.3.68a6.65,6.65,0,0,1,.28-.69c.12-.23.24-.47.36-.74l1.64-3.39a.8.8,0,0,1,.13-.21,1.14,1.14,0,0,1,.19-.19.84.84,0,0,1,.25-.13.75.75,0,0,1,.31-.06h2.4Z"/></g></g><g id="Y-11" class="cls-1"><g class="cls-1"><path class="cls-2" d="M287.35,272.57V277h-2.7v-4.43l-4.23-7.23h2.39a.89.89,0,0,1,.56.17,1.14,1.14,0,0,1,.33.42l1.65,3.39c.14.27.26.52.37.75s.21.46.3.68a6.65,6.65,0,0,1,.28-.69c.12-.23.24-.47.36-.74l1.64-3.39a.8.8,0,0,1,.13-.21,1.14,1.14,0,0,1,.19-.19.84.84,0,0,1,.25-.13.75.75,0,0,1,.31-.06h2.4Z"/></g></g><g id="Y-12" class="cls-1"><g class="cls-1"><path class="cls-2" d="M287.35,301.57V306h-2.7v-4.43l-4.23-7.23h2.39a.89.89,0,0,1,.56.17,1.14,1.14,0,0,1,.33.42l1.65,3.39c.14.27.26.52.37.75s.21.46.3.68a6.65,6.65,0,0,1,.28-.69c.12-.23.24-.47.36-.74l1.64-3.39a.8.8,0,0,1,.13-.21,1.14,1.14,0,0,1,.19-.19.84.84,0,0,1,.25-.13.75.75,0,0,1,.31-.06h2.4Z"/></g></g><g id="Y-13" class="cls-1"><g class="cls-1"><path class="cls-3" d="M287.35,330.57V335h-2.7v-4.43l-4.23-7.23h2.39a.89.89,0,0,1,.56.17,1.14,1.14,0,0,1,.33.42l1.65,3.39c.14.27.26.52.37.75s.21.46.3.68a6.65,6.65,0,0,1,.28-.69c.12-.23.24-.47.36-.74l1.64-3.39a.8.8,0,0,1,.13-.21,1.14,1.14,0,0,1,.19-.19.84.84,0,0,1,.25-.13.75.75,0,0,1,.31-.06h2.4Z"/></g></g></g></svg>