<svg viewBox="0 0 103.82 93.53" xmlns="http://www.w3.org/2000/svg"><path d="m54.11 3.12a.59.59 0 0 1 -.18.2.39.39 0 0 1 -.23.07.63.63 0 0 1 -.27-.08l-.33-.18a2 2 0 0 0 -.42-.13 1.8 1.8 0 0 0 -.54-.08 1.15 1.15 0 0 0 -.78.22.76.76 0 0 0 -.26.6.56.56 0 0 0 .16.4 1.36 1.36 0 0 0 .4.28 3.54 3.54 0 0 0 .58.21l.65.22c.23.08.44.17.66.27a2.58 2.58 0 0 1 .57.41 2.13 2.13 0 0 1 .41.6 2.21 2.21 0 0 1 .15.86 2.75 2.75 0 0 1 -.19 1 2.53 2.53 0 0 1 -.56.84 2.66 2.66 0 0 1 -.9.57 3.36 3.36 0 0 1 -1.22.2 4 4 0 0 1 -.76-.07 4.63 4.63 0 0 1 -.75-.22 4 4 0 0 1 -.69-.31 3 3 0 0 1 -.55-.43l.55-.87a.44.44 0 0 1 .17-.16.48.48 0 0 1 .22-.09.6.6 0 0 1 .33.1l.38.24a3.59 3.59 0 0 0 .48.23 1.85 1.85 0 0 0 .65.1 1.24 1.24 0 0 0 .79-.22.85.85 0 0 0 .28-.71.69.69 0 0 0 -.15-.46 1.43 1.43 0 0 0 -.41-.29 4.14 4.14 0 0 0 -.57-.2c-.21-.06-.43-.12-.65-.2a4.51 4.51 0 0 1 -.66-.26 1.88 1.88 0 0 1 -.56-.41 1.9 1.9 0 0 1 -.41-.64 2.57 2.57 0 0 1 -.15-.94 2.23 2.23 0 0 1 .18-.88 2.36 2.36 0 0 1 .53-.77 2.6 2.6 0 0 1 .94-.53 3.06 3.06 0 0 1 1.17-.2 4.17 4.17 0 0 1 .71.05 4.37 4.37 0 0 1 .67.17 4.43 4.43 0 0 1 .58.27 3.1 3.1 0 0 1 .49.36z" fill="#db8f66"/><g fill="#fff"><path d="m100.42 49.13a3.44 3.44 0 0 0 .68-.06 3.06 3.06 0 0 0 .56-.18v-1.21h-.79a.33.33 0 0 1 -.27-.1.29.29 0 0 1 -.1-.23v-1h2.85v3.39a3.56 3.56 0 0 1 -.65.38 3.91 3.91 0 0 1 -.7.27 6.45 6.45 0 0 1 -.81.16 8.71 8.71 0 0 1 -.91 0 4.15 4.15 0 0 1 -1.63-.31 3.79 3.79 0 0 1 -2.15-2.14 4.19 4.19 0 0 1 -.32-1.63 4.4 4.4 0 0 1 .3-1.65 3.81 3.81 0 0 1 .85-1.3 3.91 3.91 0 0 1 1.34-.84 4.83 4.83 0 0 1 1.75-.3 4.7 4.7 0 0 1 .94.08 4.79 4.79 0 0 1 .81.22 3.92 3.92 0 0 1 .68.34 4.2 4.2 0 0 1 .55.43l-.54.82a.52.52 0 0 1 -.18.18.4.4 0 0 1 -.24.07.68.68 0 0 1 -.34-.11c-.14-.09-.28-.16-.41-.23l-.4-.16a3 3 0 0 0 -.43-.08 3.89 3.89 0 0 0 -.51 0 2.35 2.35 0 0 0 -.94.18 2.18 2.18 0 0 0 -.71.52 2.29 2.29 0 0 0 -.45.81 3.13 3.13 0 0 0 -.16 1 3.58 3.58 0 0 0 .17 1.13 2.48 2.48 0 0 0 .49.84 2.16 2.16 0 0 0 .74.52 2.33 2.33 0 0 0 .93.19z"/><path d="m5 47.25c.07.15.13.3.19.46.07-.16.13-.32.2-.47s.14-.3.22-.44l2.05-4.06a.74.74 0 0 1 .12-.16.26.26 0 0 1 .13-.08.38.38 0 0 1 .16 0h1.6v8h-1.67v-4.63c0-.23 0-.47 0-.73l-2.06 4.12a.64.64 0 0 1 -.27.29.7.7 0 0 1 -.38.1h-.29a.7.7 0 0 1 -.38-.1.64.64 0 0 1 -.27-.29l-2.1-4.12v.38s0 .24 0 .35v4.61h-1.59v-8h1.63a.38.38 0 0 1 .16 0 .26.26 0 0 1 .13.08.5.5 0 0 1 .11.16l2.07 4.07z"/><path d="m67.49 47.25c.07.15.13.3.2.46.06-.16.12-.32.19-.47s.14-.3.22-.44l2.06-4.06a.5.5 0 0 1 .11-.16.26.26 0 0 1 .13-.08.41.41 0 0 1 .16 0h1.63v8h-1.64v-4.63c0-.23 0-.47 0-.73l-2.12 4.12a.59.59 0 0 1 -.27.29.67.67 0 0 1 -.38.1h-.25a.71.71 0 0 1 -.65-.39l-2.13-4.12v.38.35 4.61h-1.57v-8h1.63a.38.38 0 0 1 .16 0 .22.22 0 0 1 .13.08.74.74 0 0 1 .12.16l2.06 4.07z"/><path d="m26 50.48h-1.47a.61.61 0 0 1 -.39-.12.54.54 0 0 1 -.22-.28l-.47-1.4h-3.05l-.47 1.4a.61.61 0 0 1 -.22.27.58.58 0 0 1 -.39.13h-1.45l3.1-8h1.9zm-5.15-3.07h2.15l-.74-2.19c-.05-.14-.1-.3-.17-.49s-.13-.4-.19-.62c-.06.23-.12.43-.18.62a4.61 4.61 0 0 1 -.18.5z"/><path d="m88.31 50.48h-1.44a.65.65 0 0 1 -.4-.12.58.58 0 0 1 -.21-.28l-.48-1.4h-3l-.48 1.4a.53.53 0 0 1 -.21.27.59.59 0 0 1 -.39.13h-1.49l3.1-8h1.9zm-5.14-3.07h2.18l-.73-2.19c-.05-.14-.11-.3-.17-.49s-.13-.4-.19-.62c-.06.23-.12.43-.18.62a4.61 4.61 0 0 1 -.18.5z"/><path d="m36.39 47.51v3h-1.86v-8h2.61a5.3 5.3 0 0 1 1.48.18 2.84 2.84 0 0 1 1 .5 1.77 1.77 0 0 1 .56.75 2.47 2.47 0 0 1 .18 1 2.94 2.94 0 0 1 -.1.74 2.26 2.26 0 0 1 -.32.64 2.23 2.23 0 0 1 -.5.52 2.55 2.55 0 0 1 -.69.38 1.92 1.92 0 0 1 .35.23 1.34 1.34 0 0 1 .28.34l1.71 2.79h-1.69a.71.71 0 0 1 -.67-.36l-1.33-2.42a.56.56 0 0 0 -.21-.22.6.6 0 0 0 -.33-.07zm0-1.28h.75a1.76 1.76 0 0 0 .64-.1 1 1 0 0 0 .69-.66 1.57 1.57 0 0 0 .07-.49 1 1 0 0 0 -.34-.83 1.58 1.58 0 0 0 -1.06-.3h-.75z"/><path d="m54.11 44.09a.59.59 0 0 1 -.18.2.39.39 0 0 1 -.23.06.6.6 0 0 1 -.27-.07l-.33-.18a2 2 0 0 0 -.42-.18 1.53 1.53 0 0 0 -.54-.08 1.15 1.15 0 0 0 -.78.22.76.76 0 0 0 -.26.6.56.56 0 0 0 .16.4 1.36 1.36 0 0 0 .4.28 3.54 3.54 0 0 0 .58.21l.65.22a5.38 5.38 0 0 1 .66.27 2.58 2.58 0 0 1 .57.41 2.13 2.13 0 0 1 .41.6 2.21 2.21 0 0 1 .15.86 2.78 2.78 0 0 1 -.19 1 2.53 2.53 0 0 1 -.56.84 2.66 2.66 0 0 1 -.9.57 3.36 3.36 0 0 1 -1.22.2 4 4 0 0 1 -.76-.07 4.63 4.63 0 0 1 -.75-.22 4 4 0 0 1 -.69-.33 3 3 0 0 1 -.55-.43l.55-.87a.44.44 0 0 1 .17-.16.48.48 0 0 1 .24-.06.6.6 0 0 1 .33.1l.38.23a2.69 2.69 0 0 0 .48.24 1.85 1.85 0 0 0 .65.1 1.24 1.24 0 0 0 .79-.22.85.85 0 0 0 .28-.71.69.69 0 0 0 -.15-.46 1.43 1.43 0 0 0 -.41-.29 4.14 4.14 0 0 0 -.57-.2c-.21-.06-.43-.12-.65-.2a6 6 0 0 1 -.66-.26 1.88 1.88 0 0 1 -.56-.41 1.9 1.9 0 0 1 -.41-.64 2.61 2.61 0 0 1 -.15-.94 2.23 2.23 0 0 1 .18-.88 2.36 2.36 0 0 1 .53-.77 2.6 2.6 0 0 1 .87-.53 3.06 3.06 0 0 1 1.17-.2 4.17 4.17 0 0 1 .71 0 4.37 4.37 0 0 1 .67.17 4.43 4.43 0 0 1 .58.27 3.1 3.1 0 0 1 .49.36z"/></g><path d="m67.49 60.86c.07.15.13.31.2.46.06-.16.12-.32.19-.47s.14-.3.22-.44l2.06-4a.56.56 0 0 1 .11-.17.57.57 0 0 1 .13-.08.41.41 0 0 1 .16 0h1.63v8h-1.64v-4.68c0-.22 0-.46 0-.73l-2.12 4.12a.66.66 0 0 1 -.27.3.76.76 0 0 1 -.38.09h-.25a.67.67 0 0 1 -.65-.39l-2.13-4.12v.38.35 4.61h-1.57v-8h1.63a.38.38 0 0 1 .16 0 .41.41 0 0 1 .13.08.83.83 0 0 1 .12.17l2.06 4.07z" fill="#af592b"/><path d="m26 64.09h-1.47a.67.67 0 0 1 -.39-.11.57.57 0 0 1 -.22-.29l-.47-1.4h-3.05l-.47 1.4a.7.7 0 0 1 -.22.28.62.62 0 0 1 -.39.12h-1.45l3.1-8h1.9zm-5.17-3.09h2.17l-.74-2.2c-.05-.14-.1-.3-.17-.49s-.13-.39-.19-.61c-.06.22-.12.43-.18.62s-.12.35-.18.49z" fill="#af592b"/><path d="m88.31 64.09h-1.44a.72.72 0 0 1 -.4-.11.61.61 0 0 1 -.21-.29l-.48-1.4h-3l-.48 1.4a.59.59 0 0 1 -.21.28.65.65 0 0 1 -.39.12h-1.49l3.1-8h1.9zm-5.14-3.09h2.18l-.73-2.2c-.05-.14-.11-.3-.17-.49s-.13-.39-.19-.61c-.06.22-.12.43-.18.62s-.12.35-.18.49z" fill="#af592b"/><path d="m36.39 61.13v3h-1.86v-8h2.61a5.74 5.74 0 0 1 1.48.17 2.84 2.84 0 0 1 1 .5 1.86 1.86 0 0 1 .56.76 2.42 2.42 0 0 1 .18.94 2.94 2.94 0 0 1 -.1.74 2.48 2.48 0 0 1 -.82 1.17 2.53 2.53 0 0 1 -.69.37 2 2 0 0 1 .35.24 1.29 1.29 0 0 1 .28.33l1.71 2.79h-1.69a.73.73 0 0 1 -.67-.35l-1.33-2.38a.64.64 0 0 0 -.21-.22.72.72 0 0 0 -.33-.06zm0-1.29h.75a2 2 0 0 0 .64-.09 1.27 1.27 0 0 0 .44-.27 1 1 0 0 0 .25-.4 1.53 1.53 0 0 0 .07-.49 1 1 0 0 0 -.34-.83 1.64 1.64 0 0 0 -1.06-.29h-.75z" fill="#af592b"/><path d="m54.11 57.7a.59.59 0 0 1 -.18.2.33.33 0 0 1 -.23.07.63.63 0 0 1 -.27-.08l-.33-.18a2 2 0 0 0 -.42-.18 1.8 1.8 0 0 0 -.54-.08 1.21 1.21 0 0 0 -.78.22.77.77 0 0 0 -.26.61.58.58 0 0 0 .16.4 1.34 1.34 0 0 0 .4.27 3.54 3.54 0 0 0 .58.21l.65.22a5.44 5.44 0 0 1 .66.28 2.26 2.26 0 0 1 .57.4 2 2 0 0 1 .41.61 2.15 2.15 0 0 1 .15.85 2.75 2.75 0 0 1 -.19 1 2.57 2.57 0 0 1 -.56.85 2.64 2.64 0 0 1 -.93.63 3.36 3.36 0 0 1 -1.22.21 4 4 0 0 1 -.76-.08 3.81 3.81 0 0 1 -.75-.22 4 4 0 0 1 -.69-.33 3 3 0 0 1 -.55-.43l.55-.87a.52.52 0 0 1 .17-.16.48.48 0 0 1 .25-.12.62.62 0 0 1 .33.11l.38.23a3.59 3.59 0 0 0 .48.23 1.85 1.85 0 0 0 .65.1 1.24 1.24 0 0 0 .79-.22.84.84 0 0 0 .28-.71.68.68 0 0 0 -.15-.45 1.13 1.13 0 0 0 -.41-.29 3.11 3.11 0 0 0 -.57-.21l-.65-.19a4.58 4.58 0 0 1 -.66-.27 1.88 1.88 0 0 1 -.56-.41 1.81 1.81 0 0 1 -.41-.64 2.57 2.57 0 0 1 -.15-.94 2.27 2.27 0 0 1 .18-.88 2.22 2.22 0 0 1 .53-.76 2.47 2.47 0 0 1 .87-.54 3.26 3.26 0 0 1 1.17-.2 4.17 4.17 0 0 1 .71.06 2.86 2.86 0 0 1 .67.17 2.8 2.8 0 0 1 .58.27 2.54 2.54 0 0 1 .49.35z" fill="#af592b"/><path d="m67.49 74.58c.07.15.13.31.2.46.06-.16.12-.32.19-.47s.14-.3.22-.44l2.06-4a.56.56 0 0 1 .11-.17.57.57 0 0 1 .13-.08.41.41 0 0 1 .16 0h1.63v8h-1.64v-4.68c0-.22 0-.47 0-.73l-2.12 4.12a.66.66 0 0 1 -.27.3.76.76 0 0 1 -.38.09h-.25a.67.67 0 0 1 -.65-.39l-2.13-4.12v.38.35 4.61h-1.57v-8h1.63a.38.38 0 0 1 .16 0 .41.41 0 0 1 .13.08.83.83 0 0 1 .12.17l2.06 4.07z" fill="#d37b4c"/><path d="m36.39 74.85v3h-1.86v-8h2.61a5.74 5.74 0 0 1 1.48.17 2.84 2.84 0 0 1 1 .5 1.86 1.86 0 0 1 .56.76 2.42 2.42 0 0 1 .18.94 2.94 2.94 0 0 1 -.1.74 2.48 2.48 0 0 1 -.82 1.17 2.53 2.53 0 0 1 -.69.37 2 2 0 0 1 .35.24 1.29 1.29 0 0 1 .28.33l1.71 2.79h-1.69a.73.73 0 0 1 -.67-.35l-1.33-2.38a.64.64 0 0 0 -.21-.22.72.72 0 0 0 -.33-.06zm0-1.29h.75a2 2 0 0 0 .64-.09 1.27 1.27 0 0 0 .44-.27 1 1 0 0 0 .25-.4 1.53 1.53 0 0 0 .07-.49 1 1 0 0 0 -.34-.83 1.64 1.64 0 0 0 -1.06-.29h-.75z" fill="#d37b4c"/><path d="m54.11 71.42a.59.59 0 0 1 -.18.2.33.33 0 0 1 -.23.07.63.63 0 0 1 -.27-.08l-.33-.18a2 2 0 0 0 -.42-.18 1.8 1.8 0 0 0 -.54-.08 1.21 1.21 0 0 0 -.78.22.77.77 0 0 0 -.26.61.58.58 0 0 0 .16.4 1.34 1.34 0 0 0 .4.27 3.54 3.54 0 0 0 .58.21l.65.22a5.44 5.44 0 0 1 .66.28 2.26 2.26 0 0 1 .57.4 2 2 0 0 1 .41.61 2.15 2.15 0 0 1 .15.85 2.75 2.75 0 0 1 -.19 1 2.5 2.5 0 0 1 -1.49 1.45 3.36 3.36 0 0 1 -1.22.21 4 4 0 0 1 -.76-.08 3.81 3.81 0 0 1 -.75-.22 4 4 0 0 1 -.69-.33 3 3 0 0 1 -.55-.43l.55-.87a.52.52 0 0 1 .17-.16.48.48 0 0 1 .24-.06.62.62 0 0 1 .33.11l.38.23a3.59 3.59 0 0 0 .48.23 1.85 1.85 0 0 0 .65.1 1.24 1.24 0 0 0 .79-.22.84.84 0 0 0 .28-.71.66.66 0 0 0 -.15-.45 1.13 1.13 0 0 0 -.41-.29 3.11 3.11 0 0 0 -.57-.21l-.65-.19a4.58 4.58 0 0 1 -.66-.27 1.88 1.88 0 0 1 -.56-.41 1.81 1.81 0 0 1 -.41-.64 2.57 2.57 0 0 1 -.15-.94 2.27 2.27 0 0 1 .18-.88 2.22 2.22 0 0 1 .53-.76 2.47 2.47 0 0 1 .87-.54 3.06 3.06 0 0 1 1.17-.2 4.17 4.17 0 0 1 .71.06 2.86 2.86 0 0 1 .67.17 2.8 2.8 0 0 1 .58.27 2.54 2.54 0 0 1 .49.35z" fill="#d37b4c"/><path d="m54.11 85.18a.71.71 0 0 1 -.18.2.39.39 0 0 1 -.23.06.6.6 0 0 1 -.27-.07l-.33-.18a2 2 0 0 0 -.42-.18 1.53 1.53 0 0 0 -.54-.08 1.15 1.15 0 0 0 -.78.22.76.76 0 0 0 -.26.6.56.56 0 0 0 .16.4 1.36 1.36 0 0 0 .4.28 3.54 3.54 0 0 0 .58.21l.65.22a5.38 5.38 0 0 1 .66.27 2.58 2.58 0 0 1 .57.41 2.13 2.13 0 0 1 .41.6 2.21 2.21 0 0 1 .15.86 2.78 2.78 0 0 1 -.19 1 2.53 2.53 0 0 1 -.56.84 2.66 2.66 0 0 1 -.9.57 3.36 3.36 0 0 1 -1.22.2 4 4 0 0 1 -.76-.07 4.63 4.63 0 0 1 -.75-.22 4 4 0 0 1 -.69-.33 3 3 0 0 1 -.55-.43l.55-.87a.44.44 0 0 1 .17-.16.48.48 0 0 1 .24-.06.6.6 0 0 1 .33.1l.38.23a2.69 2.69 0 0 0 .48.24 1.85 1.85 0 0 0 .65.1 1.24 1.24 0 0 0 .79-.22.85.85 0 0 0 .28-.71.69.69 0 0 0 -.15-.46 1.43 1.43 0 0 0 -.41-.29 4.14 4.14 0 0 0 -.57-.2c-.21-.06-.43-.12-.65-.2a6 6 0 0 1 -.66-.26 1.88 1.88 0 0 1 -.56-.41 1.9 1.9 0 0 1 -.41-.64 2.61 2.61 0 0 1 -.15-.94 2.23 2.23 0 0 1 .18-.88 2.36 2.36 0 0 1 .53-.77 2.6 2.6 0 0 1 .87-.53 3.05 3.05 0 0 1 1.17-.21 4.17 4.17 0 0 1 .71.06 4.37 4.37 0 0 1 .67.17 4.43 4.43 0 0 1 .58.27 3.1 3.1 0 0 1 .49.36z" fill="#db8f66"/><path d="m67.49 33.69c.07.15.13.3.2.46.06-.16.12-.32.19-.47s.14-.3.22-.44l2.06-4.06a.5.5 0 0 1 .11-.16.26.26 0 0 1 .13-.08.41.41 0 0 1 .16 0h1.63v8h-1.64v-4.63c0-.23 0-.47 0-.73l-2.09 4.12a.59.59 0 0 1 -.27.29.67.67 0 0 1 -.38.1h-.25a.71.71 0 0 1 -.65-.39l-2.13-4.12v.38.35 4.61h-1.6v-8h1.63a.38.38 0 0 1 .16 0 .22.22 0 0 1 .13.08.74.74 0 0 1 .12.16l2.06 4.07z" fill="#af592b"/><path d="m26 36.92h-1.47a.61.61 0 0 1 -.39-.12.53.53 0 0 1 -.22-.29l-.47-1.39h-3.05l-.47 1.39a.59.59 0 0 1 -.22.28.58.58 0 0 1 -.39.13h-1.45l3.1-8h1.9zm-5.15-3.07h2.15l-.74-2.19c-.05-.14-.1-.31-.17-.49s-.13-.4-.19-.62c-.06.23-.12.43-.18.62a4.61 4.61 0 0 1 -.18.5z" fill="#af592b"/><path d="m88.31 36.92h-1.44a.65.65 0 0 1 -.4-.12.56.56 0 0 1 -.21-.29l-.48-1.39h-3l-.48 1.39a.51.51 0 0 1 -.21.28.59.59 0 0 1 -.39.13h-1.49l3.1-8h1.9zm-5.14-3.07h2.18l-.73-2.19-.17-.49c-.06-.19-.13-.4-.19-.62-.06.23-.12.43-.18.62a4.61 4.61 0 0 1 -.18.5z" fill="#af592b"/><path d="m36.39 34v3h-1.86v-8h2.61a5.3 5.3 0 0 1 1.48.18 2.84 2.84 0 0 1 1 .5 1.77 1.77 0 0 1 .56.75 2.47 2.47 0 0 1 .18 1 2.94 2.94 0 0 1 -.1.74 2.26 2.26 0 0 1 -.32.64 2.23 2.23 0 0 1 -.5.52 2.55 2.55 0 0 1 -.69.38 1.92 1.92 0 0 1 .35.23 1.34 1.34 0 0 1 .28.34l1.71 2.79h-1.69a.71.71 0 0 1 -.67-.36l-1.33-2.47a.5.5 0 0 0 -.21-.22.6.6 0 0 0 -.33-.07zm0-1.28h.75a1.76 1.76 0 0 0 .64-.1 1 1 0 0 0 .69-.66 1.57 1.57 0 0 0 .07-.49 1 1 0 0 0 -.34-.83 1.58 1.58 0 0 0 -1.06-.3h-.75z" fill="#af592b"/><path d="m54.11 30.53a.59.59 0 0 1 -.18.2.39.39 0 0 1 -.23.06.6.6 0 0 1 -.27-.07l-.33-.18a2 2 0 0 0 -.42-.18 1.53 1.53 0 0 0 -.54-.08 1.15 1.15 0 0 0 -.78.22.76.76 0 0 0 -.26.6.56.56 0 0 0 .16.4 1.36 1.36 0 0 0 .4.28 3.54 3.54 0 0 0 .58.21l.65.22a5.38 5.38 0 0 1 .66.27 2.58 2.58 0 0 1 .57.41 2.13 2.13 0 0 1 .41.6 2.21 2.21 0 0 1 .15.86 2.78 2.78 0 0 1 -.19 1 2.53 2.53 0 0 1 -.56.84 2.66 2.66 0 0 1 -.9.57 3.36 3.36 0 0 1 -1.22.2 4 4 0 0 1 -.76-.07 4.63 4.63 0 0 1 -.75-.22 4 4 0 0 1 -.69-.33 3 3 0 0 1 -.55-.43l.55-.87a.44.44 0 0 1 .17-.16.48.48 0 0 1 .24-.06.6.6 0 0 1 .33.1l.38.23a2.69 2.69 0 0 0 .48.24 1.85 1.85 0 0 0 .65.1 1.24 1.24 0 0 0 .79-.22.85.85 0 0 0 .28-.71.69.69 0 0 0 -.15-.46 1.43 1.43 0 0 0 -.41-.29 4.14 4.14 0 0 0 -.57-.2c-.21-.06-.43-.12-.65-.2a6 6 0 0 1 -.66-.26 1.88 1.88 0 0 1 -.56-.41 1.9 1.9 0 0 1 -.41-.64 2.61 2.61 0 0 1 -.15-.94 2.23 2.23 0 0 1 .18-.88 2.36 2.36 0 0 1 .53-.77 2.6 2.6 0 0 1 .92-.51 3.05 3.05 0 0 1 1.17-.21 4.17 4.17 0 0 1 .71.06 4.37 4.37 0 0 1 .67.17 4.43 4.43 0 0 1 .58.27 3.1 3.1 0 0 1 .49.36z" fill="#af592b"/><path d="m67.49 19.65c.07.15.13.31.2.46.06-.16.12-.31.19-.47s.14-.3.22-.44l2.06-4a.41.41 0 0 1 .11-.16.38.38 0 0 1 .13-.09.41.41 0 0 1 .16 0h1.63v8h-1.64v-4.68q0-.33 0-.72l-2.12 4.12a.69.69 0 0 1 -.27.29.77.77 0 0 1 -.38.1h-.25a.8.8 0 0 1 -.38-.1.84.84 0 0 1 -.27-.29l-2.13-4.13v.38.35 4.61h-1.57v-8h1.63a.38.38 0 0 1 .16 0 .3.3 0 0 1 .13.09.55.55 0 0 1 .12.16l2.06 4.07z" fill="#d37b4c"/><path d="m36.39 19.92v3h-1.86v-8h2.61a5.3 5.3 0 0 1 1.48.18 2.83 2.83 0 0 1 1 .49 1.86 1.86 0 0 1 .56.76 2.42 2.42 0 0 1 .18.94 2.94 2.94 0 0 1 -.1.74 2.48 2.48 0 0 1 -.82 1.17 2.85 2.85 0 0 1 -.69.38 1.92 1.92 0 0 1 .35.23 1.29 1.29 0 0 1 .28.33l1.71 2.79h-1.69a.73.73 0 0 1 -.67-.35l-1.33-2.38a.64.64 0 0 0 -.21-.22.72.72 0 0 0 -.33-.06zm0-1.29h.75a2 2 0 0 0 .64-.09 1.13 1.13 0 0 0 .44-.27 1 1 0 0 0 .25-.4 1.53 1.53 0 0 0 .07-.49 1 1 0 0 0 -.34-.82 1.58 1.58 0 0 0 -1.06-.3h-.75z" fill="#d37b4c"/><path d="m54.11 16.5a.66.66 0 0 1 -.18.19.33.33 0 0 1 -.23.07.63.63 0 0 1 -.27-.08l-.33-.18-.42-.18a1.8 1.8 0 0 0 -.54-.08 1.15 1.15 0 0 0 -.78.23.74.74 0 0 0 -.26.6.58.58 0 0 0 .16.4 1.17 1.17 0 0 0 .4.27 4.73 4.73 0 0 0 .58.22l.65.21a5.44 5.44 0 0 1 .66.28 2.26 2.26 0 0 1 .57.4 2 2 0 0 1 .41.61 2.15 2.15 0 0 1 .15.85 2.75 2.75 0 0 1 -.19 1 2.57 2.57 0 0 1 -.56.85 2.64 2.64 0 0 1 -.9.56 3.36 3.36 0 0 1 -1.22.21 4 4 0 0 1 -.76-.08 3.81 3.81 0 0 1 -.75-.22 4 4 0 0 1 -.69-.33 3 3 0 0 1 -.55-.43l.55-.87a.52.52 0 0 1 .17-.16.48.48 0 0 1 .24-.06.62.62 0 0 1 .33.11l.38.23a3.59 3.59 0 0 0 .48.23 1.85 1.85 0 0 0 .65.1 1.24 1.24 0 0 0 .79-.22.83.83 0 0 0 .28-.7.69.69 0 0 0 -.15-.46 1.13 1.13 0 0 0 -.41-.29 3.11 3.11 0 0 0 -.57-.21c-.21-.05-.43-.12-.65-.19a4.58 4.58 0 0 1 -.66-.27 1.88 1.88 0 0 1 -.56-.41 1.81 1.81 0 0 1 -.41-.64 2.57 2.57 0 0 1 -.15-.94 2.27 2.27 0 0 1 .18-.88 2.22 2.22 0 0 1 .53-.76 2.47 2.47 0 0 1 .92-.48 3.26 3.26 0 0 1 1.17-.2 4.17 4.17 0 0 1 .71.06 3.46 3.46 0 0 1 .67.17 2.8 2.8 0 0 1 .58.27 2.54 2.54 0 0 1 .49.35z" fill="#d37b4c"/></svg>