<svg id="Layer_1" data-name="Layer 1" xmlns="http://www.w3.org/2000/svg" viewBox="0 0 177.96 177.96"><defs><style>.cls-1{fill:#fff;}</style></defs><g id="Tiktok"><path class="cls-1" d="M89,0a89,89,0,1,0,89,89A89,89,0,0,0,89,0Zm39.2,79.64a26.77,26.77,0,0,1-19.33-9.14c-.55-.63-1.08-1.27-2.12-2.48,0,7.12,0,13.5,0,19.88-.06,8,.34,16.08-.43,24-1.42,14.77-13.44,25.51-28.59,26.35-13.88.77-26.9-9.17-30.22-23.06a30.17,30.17,0,0,1,28-37c2.43-.12,3.33.49,3.18,3.05-.22,3.81-.06,7.64-.06,11.48a57,57,0,0,0-5.72.77,15.23,15.23,0,0,0-11.36,16.84,15.42,15.42,0,0,0,16,13.26c8.21-.46,15-6.83,15.08-14.56.17-22,.16-44,.22-66,0-1.08,0-2.16,0-3.4h14c.17.59.41,1.22.53,1.86a26.12,26.12,0,0,0,22,21.26c1.52.23,2,.73,2,2.23-.08,3.92-.21,7.86,0,11.77C131.45,79.32,130.35,79.76,128.18,79.64Z"/></g></svg>